# AST/ASF file generated using VICON BodyLanguage
# -----------------------------------------------
:version 1.10
:name VICON
:units
  mass 1.0
  length 0.45
  angle deg
:documentation
   .ast/.asf automatically generated from VICON data using
   VICON BodyBuilder and BodyLanguage model FoxedUp or BRILLIANT.MOD
:root
   order TX TY TZ RX RY RZ
   axis XYZ
   position 0 0 0  
   orientation 0 0 0 
:bonedata
  begin
     id 1 
     name lhipjoint
     direction 0.643822 -0.745931 0.170529 
     length 2.62041 
     axis 0 0 0  XYZ
  end
  begin
     id 2 
     name lfemur
     direction 0.34202 -0.939693 0  
     length 7.92179  
     axis 0 0 20  XYZ
    dof rx ry rz
    limits (-160.0 20.0)
           (-70.0 70.0)
           (-60.0 70.0)
  end
  begin
     id 3 
     name ltibia
     direction 0.34202 -0.939693 0   
     length 8.16326   
     axis 0 0 20   XYZ
    dof rx
    limits (-10.0 170.0)
  end
  begin
     id 4 
     name lfoot
     direction 0.0837341 -0.230058 0.969568   
     length 1.94455   
     axis -90 7.62852e-016 20   XYZ
    dof rx rz
    limits (-45.0 90.0)
           (-70.0 20.0)
  end
  begin
     id 5 
     name ltoes
     direction 1.5356e-011 -4.21695e-011 1   
     length 0.978804   
     axis -90 7.62852e-016 20   XYZ
    dof rx
    limits (-90.0 20.0)
  end
  begin
     id 6 
     name rhipjoint
     direction -0.656883 -0.73503 0.168037   
     length 2.65927  
     axis 0 0 0  XYZ 
  end
  begin
     id 7 
     name rfemur
     direction -0.34202 -0.939693 0   
     length 7.58746   
     axis 0 0 -20   XYZ
    dof rx ry rz
    limits (-160.0 20.0)
           (-70.0 70.0)
           (-70.0 60.0)
  end
  begin
     id 8 
     name rtibia
     direction -0.342117 -0.939657 0   
     length 8.27303   
     axis 0 0 -20   XYZ
    dof rx
    limits (-10.0 170.0)
 end
 begin
     id 9 
     name rfoot
     direction -0.0685862 -0.188439 0.979687   
     length 2.13088  
     axis -90 -7.62852e-016 -20   XYZ
    dof rx rz
    limits (-45.0 90.0)
           (-20.0 70.0)
  end
  begin
     id 10 
     name rtoes
     direction -1.53538e-011 -4.21514e-011 1   
     length 1.07326   
     axis -90 -7.62852e-016 -20   XYZ
    dof rx
    limits (-90.0 20.0)
  end
  begin
     id 11 
     name lowerback
     direction -0.0358974 0.997216 0.065354   
     length 1.87174   
     axis 0 0 0   XYZ
    dof rx ry rz
    limits (-20.0 45.0)
           (-30.0 30.0)
           (-30.0 30.0)
  end
  begin
     id 12 
     name upperback
     direction 0.0202028 0.998565 0.0495864   
     length 1.8684   
     axis 0 0 0   XYZ
    dof rx ry rz
    limits (-20.0 45.0)
           (-30.0 30.0)
           (-30.0 30.0)
  end
  begin
     id 13 
     name thorax
     direction 0.0366367 0.999163 0.0182199   
     length 1.87747   
     axis 0 0 0   XYZ
    dof rx ry rz
    limits (-20.0 45.0)
           (-30.0 30.0)
           (-30.0 30.0)
  end
  begin
     id 14 
     name lowerneck
     direction 0.0284381 0.999578 -0.00598196   
     length 1.84583   
     axis 0 0 0   XYZ
    dof rx ry rz
    limits (-20.0 45.0)
           (-30.0 30.0)
           (-30.0 30.0)
  end
  begin
     id 15 
     name upperneck
     direction -0.0888142 0.993333 -0.0734973   
     length 1.84467   
     axis 0 0 0   XYZ
    dof rx ry rz
    limits (-20.0 45.0)
           (-30.0 30.0)
           (-30.0 30.0)
  end
  begin
     id 16
     name head
     direction -0.0296474 0.999102 -0.0302696  
     length 1.86566  
     axis 0 0 0   XYZ
    dof rx ry rz
    limits (-20.0 45.0)
           (-30.0 30.0)
           (-30.0 30.0)
  end
  begin
     id 17 
     name lclavicle
     direction 0.933925 0.35714 -0.0153523  
     length 3.93442  
     axis 0 0 0   XYZ
    dof ry rz
    limits (-20.0 10.0)
           (0.0 20.0)
  end
  begin
     id 18 
     name lhumerus
     direction 1 -4.48967e-011 2.12044e-027   
     length 5.78174   
     axis 180 -30 -90   XYZ
    dof rx ry rz
    limits (-60.0 90.0)
           (-90.0 90.0)
           (-90.0 90.0)
  end
  begin
     id 19
     name lradius
     direction 1 -4.48972e-011 6.45701e-027   
     length 3.53992   
     axis 180 -30 -90   XYZ
    dof rx
    limits (-10.0 170.0)
  end
  begin
     id 20
     name lwrist
     direction 1 -4.48981e-011 1.70244e-026   
     length 1.76996   
     axis -1.1226e-014 90 90   XYZ
    dof ry
    limits (-180.0 0.0)
 end
  begin
     id 21 
     name lhand
     direction 1 -4.4879e-011 3.40615e-026   
     length 0.550243   
     axis -2.17265e-014 90 90   XYZ
    dof rx rz
    limits (-90.0 90.0)
           (-45.0 45.0)
  end
  begin
     id 22 
     name lfingers
     direction 1 -4.49029e-011 6.80911e-026   
     length 0.44362   
     axis -4.34526e-014 90 90   XYZ
    dof rx
    limits (0.0 90.0)
  end
  begin
     id 23
     name lthumb
     direction 0.707107 -6.34923e-011 0.707107   
     length 0.636952   
     axis -90 45 -1.62303e-014   XYZ
    dof rx rz
    limits (-45.0 45.0)
           (-45.0 45.0)
  end
  begin
     id 24 
     name rclavicle
     direction -0.950832 0.305106 0.0531883   
     length 3.96125  
     axis 0 0 0   XYZ 
    dof ry rz
    limits (-10.0 20.0)
           (-20.0 0.0)
  end
  begin
     id 25 
     name rhumerus
     direction -1 -4.48961e-011 -6.07392e-030  
     length 5.79352   
     axis 180 30 90   XYZ
    dof rx ry rz
    limits (-90.0 60.0)
           (-90.0 90.0)
           (-90.0 90.0)
  end
  begin
     id 26 
     name rradius
     direction -1 -4.48964e-011 5.97548e-027   
     length 3.37081   
     axis 180 30 90   XYZ
    dof rx
    limits (-10.0 170.0)
  end
  begin
     id 27 
     name rwrist
     direction -1 -4.49021e-011 1.7023e-026   
     length 1.68541   
     axis -1.1226e-014 -90 -90   XYZ
    dof ry
    limits (-180.0 0.0)
  end
  begin
     id 28
     name rhand
     direction -1 -4.48867e-011 3.40563e-026   
     length 0.679827   
     axis -2.17265e-014 -90 -90   XYZ
    dof rx rz
    limits (-90.0 90.0)
           (-45.0 45.0)
  end
  begin
     id 29
     name rfingers
     direction -1 -4.49024e-011 6.80917e-026   
     length 0.548094   
     axis -4.34526e-014 -90 -90   XYZ
    dof rx
    limits (0.0 90.0)
  end
  begin
     id 30
     name rthumb
     direction -0.707107 -6.3488e-011 0.707107   
     length 0.786956   
     axis -90 -45 1.62303e-014   XYZ
    dof rx rz
    limits (-45.0 45.0)
           (-45.0 45.0)
  end
:hierarchy
  begin
    root lhipjoint rhipjoint lowerback
    lhipjoint lfemur
    lfemur ltibia
    ltibia lfoot
    lfoot ltoes
    rhipjoint rfemur
    rfemur rtibia
    rtibia rfoot
    rfoot rtoes
    lowerback upperback
    upperback thorax
    thorax lowerneck lclavicle rclavicle
    lowerneck upperneck
    upperneck head
    lclavicle lhumerus
    lhumerus lradius
    lradius lwrist
    lwrist lhand lthumb
    lhand lfingers
    rclavicle rhumerus
    rhumerus rradius
    rradius rwrist
    rwrist rhand rthumb
    rhand rfingers
  end

#!OML:ASF H:\Terrain\Patient Classification 1\PaulMetrics\Match1Take2\PaulMetrics.ASF
:FULLY-SPECIFIED
:DEGREES
405
root -6.33438 17.8885 -17.4361 17.6276 -10.2499 -3.9075
lowerback -7.553 1.97527 -2.9634
upperback -6.93538 2.7787 1.0838
thorax -3.16286 1.53997 2.90608
lowerneck 3.51885 15.5056 9.64862
upperneck -1.50214 21.0508 -10.9005
head 1.15898 10.6059 -4.31018
rclavicle -6.87935e-014 -2.36554e-014
rhumerus -49.3653 15.3612 -80.1442
rradius 54.5865
rwrist -15.2339
rhand -18.3644 -37.299
rfingers 7.12502
rthumb 7.91868 -67.1306
lclavicle -6.87935e-014 -2.36554e-014
lhumerus -57.0354 -8.35262 82.8837
lradius 38.4434
lwrist 2.46843
lhand -16.2188 -8.86601
lfingers 7.12502
lthumb 9.98909 20.877
rfemur -5.49197 -0.62921 29.2345
rtibia 14.3295
rfoot -17.4546 -22.3087
rtoes -20.4841
lfemur -42.6294 2.09417 -25.9701
ltibia 12.6778
lfoot -11.5799 13.7769
ltoes -20.8379
406
root -6.36729 17.8697 -17.2926 17.5992 -10.1127 -3.76782
lowerback -7.56997 1.935 -3.40394
upperback -6.94461 2.7469 1.06854
thorax -3.18512 1.54277 3.13613
lowerneck 3.6436 15.4901 9.69058
upperneck -1.82174 21.0222 -11.0809
head 1.06608 10.5987 -4.39222
rclavicle -1.02498e-015 3.97569e-016
rhumerus -49.374 15.513 -80.4142
rradius 54.1113
rwrist -15.0876
rhand -18.5515 -36.1045
rfingers 7.12502
rthumb 7.73802 -65.9429
lclavicle -1.02498e-015 3.97569e-016
lhumerus -56.853 -7.92001 82.5157
lradius 37.9184
lwrist 1.97646
lhand -16.7802 -8.50422
lfingers 7.12502
lthumb 9.44742 21.264
rfemur -5.30559 -1.03192 29.0653
rtibia 14.923
rfoot -17.1611 -21.963
rtoes -23.3627
lfemur -42.8148 2.52778 -26.596
ltibia 13.6711
lfoot -11.1804 13.4641
ltoes -21.0122
407
root -6.40059 17.8524 -17.1404 17.4885 -10.0665 -3.81469
lowerback -7.60364 1.93285 -3.6085
upperback -6.86835 2.75614 1.06727
thorax -3.09862 1.55315 3.25293
lowerneck 3.77641 15.543 9.79119
upperneck -2.24047 21.0827 -11.3727
head 0.970045 10.638 -4.51057
rclavicle -5.52241e-014 9.14409e-015
rhumerus -49.3621 15.7275 -80.8104
rradius 53.6723
rwrist -15.0854
rhand -18.1914 -34.7471
rfingers 7.12502
rthumb 8.08559 -64.5724
lclavicle -5.52241e-014 9.14409e-015
lhumerus -56.5957 -7.36284 81.992
lradius 37.3908
lwrist 1.36713
lhand -17.6116 -7.86611
lfingers 7.12502
lthumb 8.64519 21.9369
rfemur -4.93541 -1.25662 29.0306
rtibia 15.4891
rfoot -17.3091 -21.4498
rtoes -24.1821
lfemur -42.8985 2.75044 -26.7168
ltibia 14.9142
lfoot -11.2743 13.3081
ltoes -21.1781
408
root -6.43104 17.8338 -16.9844 17.4773 -9.94775 -3.91211
lowerback -7.77445 2.00831 -3.54979
upperback -6.85261 2.85795 0.956761
thorax -2.98646 1.59692 3.11701
lowerneck 3.62906 15.5892 9.75948
upperneck -2.16439 21.1358 -11.2822
head 1.00757 10.6586 -4.46212
rclavicle -2.29161e-014 2.26615e-014
rhumerus -49.5205 15.7097 -81.2651
rradius 53.6013
rwrist -14.8346
rhand -17.0629 -34.5732
rfingers 7.12502
rthumb 9.17469 -64.3536
lclavicle -2.29161e-014 2.26615e-014
lhumerus -56.443 -7.25993 81.603
lradius 36.9658
lwrist 1.07267
lhand -18.1611 -9.00612
lfingers 7.12502
lthumb 8.11486 20.8181
rfemur -4.53345 -1.59733 29.0577
rtibia 15.8083
rfoot -16.9449 -20.953
rtoes -24.9196
lfemur -43.2265 2.81019 -26.6322
ltibia 16.4814
lfoot -11.6091 13.0335
ltoes -20.4981
409
root -6.45622 17.8241 -16.8282 17.4585 -9.79697 -3.87602
lowerback -7.86785 2.06491 -3.58963
upperback -6.90155 2.93642 0.841913
thorax -2.98863 1.63607 3.02624
lowerneck 3.1747 15.5838 9.61053
upperneck -1.55588 21.1243 -10.9379
head 1.20432 10.6328 -4.28293
rclavicle -5.37759e-014 -3.97569e-016
rhumerus -49.7112 15.6857 -81.645
rradius 53.3879
rwrist -14.4409
rhand -16.3199 -34.634
rfingers 7.12502
rthumb 9.89154 -64.3817
lclavicle -5.37759e-014 -3.97569e-016
lhumerus -56.3995 -7.2577 81.4125
lradius 36.671
lwrist 1.09787
lhand -18.3041 -9.84128
lfingers 7.12502
lthumb 7.97683 19.9882
rfemur -4.12917 -2.10594 28.927
rtibia 16.0361
rfoot -16.2429 -20.3964
rtoes -26.1884
lfemur -43.5778 2.90669 -26.7965
ltibia 18.1054
lfoot -11.4719 13.0903
ltoes -19.645
410
root -6.47851 17.8208 -16.6691 17.2841 -9.64614 -3.88094
lowerback -7.68845 2.08483 -3.63586
upperback -6.99496 2.95798 0.815204
thorax -3.18926 1.65349 3.01488
lowerneck 3.1524 15.5125 9.52073
upperneck -1.33606 21.0377 -10.8797
head 1.24912 10.5873 -4.2501
rclavicle 3.89556e-014 2.50469e-014
rhumerus -50.0609 15.8605 -82.0255
rradius 53.0117
rwrist -14.0381
rhand -16.1205 -33.8616
rfingers 7.12502
rthumb 10.0839 -63.6
lclavicle 3.89556e-014 2.50469e-014
lhumerus -56.4892 -6.8305 81.0498
lradius 36.4077
lwrist 0.80503
lhand -18.6504 -10.1955
lfingers 7.12502
lthumb 7.64258 19.6464
rfemur -3.62592 -2.54089 28.8084
rtibia 16.4267
rfoot -15.8182 -19.756
rtoes -26.5625
lfemur -43.7391 3.57925 -27.3396
ltibia 19.5617
lfoot -10.1767 13.2454
ltoes -19.8159
